# xmcd
#
# Track frame offsets:
#	150
#	1085
#	17491
#	35064
#	51768
#	71129
#	86639
#	104482
#	125167
#	145232
#	149666
#
# Disc length: 2294 seconds
#
# Revision: 0
# Processed by: cddbd v1.5.2PL0 Copyright (c) Steve Scherf et al.
# Submitted via: audiograbber 1.83.01
#
DISCID=a008f40b
DTITLE=The Heartfixers with Tinsley Ellis - Live 1983
DYEAR=1983
DGENRE=Blues
TTITLE0=Intro
TTITLE1=Night Train
TTITLE2=Boogie Man
TTITLE3=A Losing Battle
TTITLE4=Walkin' Thru The Park
TTITLE5=Trick Bag
TTITLE6=It Ain't My Fault
TTITLE7=Talk To Me Baby
TTITLE8=The Jungle
TTITLE9=Scratch
TTITLE10=Red Dress
EXTD=
EXTT0=
EXTT1=
EXTT2=
EXTT3=
EXTT4=
EXTT5=
EXTT6=
EXTT7=
EXTT8=
EXTT9=
EXTT10=
PLAYORDER=
